PathFileType	4	(X/Y/Z)	Run_400 02
DataRate	CameraRate	NumFrames	NumMarkers	Units	OrigDataRate	OrigDataStartFrame	OrigNumFrames
100	100	4	42	mm	100	164	128
Frame#	Time	RASI			LPSI			RPSI			RTH1			RTH2			RTH3			LTH1			LTH2			LTH3			RTB1			RTB2			RTB3			LTB1			LTB2			LTB3			RCAL			RTOE			RMT5			LCAL			LTOE			LMT5			LACR			RACR			CLAV			C7			RUA1			RUA2			RUA3			RLEL			RMEL			LUA2			LUA3			LLEL			LMEL			RFAsuperior			RFAradius			RFAulna			LFAsuperior			LFAradius			LFAulna			LUA1			LASI		
		X1	Y1	Z1	X2	Y2	Z2	X3	Y3	Z3	X4	Y4	Z4	X5	Y5	Z5	X6	Y6	Z6	X7	Y7	Z7	X8	Y8	Z8	X9	Y9	Z9	X10	Y10	Z10	X11	Y11	Z11	X12	Y12	Z12	X13	Y13	Z13	X14	Y14	Z14	X15	Y15	Z15	X16	Y16	Z16	X17	Y17	Z17	X18	Y18	Z18	X19	Y19	Z19	X20	Y20	Z20	X21	Y21	Z21	X22	Y22	Z22	X23	Y23	Z23	X24	Y24	Z24	X25	Y25	Z25	X26	Y26	Z26	X27	Y27	Z27	X28	Y28	Z28	X29	Y29	Z29	X30	Y30	Z30	X31	Y31	Z31	X32	Y32	Z32	X33	Y33	Z33	X34	Y34	Z34	X35	Y35	Z35	X36	Y36	Z36	X37	Y37	Z37	X38	Y38	Z38	X39	Y39	Z39	X40	Y40	Z40	X41	Y41	Z41	X42	Y42	Z42	

164	  1.640000	1226.351722	990.959741	-207.570367	1060.615080	1078.484602	-373.753058	1063.270755	1073.387554	-280.857482	1123.475831	822.464254	-161.989153	1099.772682	721.153840	-189.998066	967.762818	640.306705	-186.553864	1171.881627	883.863781	-520.876058	1293.202289	812.652243	-493.042620	1290.141350	676.938824	-471.357075	810.617623	416.611000	-258.521877	707.606608	378.281082	-204.399020	658.068519	317.533940	-265.450748	1385.181802	414.738620	-390.917823	1344.301361	351.866619	-425.673247	1361.940453	278.321810	-365.239514	534.286193	363.493338	-241.833240	584.802956	140.450178	-303.992088	557.591216	132.333872	-230.220016	1243.294806	140.451088	-329.347805	1510.867947	105.606334	-323.624360	1458.065951	120.456636	-408.845682	1208.336446	1548.155203	-473.516985	1285.216569	1518.600681	-162.332121	1299.957826	1465.527214	-307.394614	1184.972614	1557.293866	-301.421730	1273.819440	1389.729505	-72.825861	1212.927610	1375.898947	-45.763729	1240.380547	1310.724922	-30.878663	1222.522526	1229.157814	 -4.821934	1143.792231	1221.934441	-64.358537	1025.272342	1518.153882	-467.957704	982.126621	1478.867176	-538.478945	915.158178	1438.322656	-548.485209	915.096144	1416.446781	-458.260291	1288.082998	1257.666221	-60.177060	1361.011093	1312.723219	-201.226048	1386.765732	1245.138240	-191.179454	964.533913	1369.350393	-569.555103	1111.807354	1258.796528	-545.113760	1062.076839	1212.103687	-563.551967	1092.974223	1528.540677	-529.523630	1228.424913	1020.026621	-449.006518	
165	  1.650000	1227.891904	991.074431	-207.046554	1060.963808	1077.964431	-372.186823	1063.012181	1072.936157	-279.075397	1127.310909	820.506626	-164.186516	1103.395647	719.655433	-195.103244	973.090506	637.724627	-188.382328	1171.379537	879.930196	-520.299828	1291.348437	806.836173	-493.456255	1286.094632	672.175946	-471.532091	803.266595	422.641773	-260.704950	699.291332	390.094425	-204.251989	644.142064	334.428398	-265.374345	1393.608924	412.133537	-389.502173	1360.238532	345.100342	-424.040487	1386.284591	274.397758	-363.064474	521.309709	385.535484	-234.155441	563.864073	165.073300	-309.718969	539.422904	153.849393	-234.778421	1283.181547	126.084130	-324.735104	1548.006323	111.631792	-322.557928	1495.028365	125.745821	-407.753282	1210.602410	1545.987998	-476.049385	1287.305203	1519.104325	-164.093470	1301.833494	1464.997076	-308.365040	1187.496328	1556.884798	-303.306610	1277.076393	1392.334574	-72.505473	1216.929931	1379.257261	-44.478631	1243.112147	1313.997807	-28.589882	1224.237840	1232.922963	 -0.943380	1144.974244	1225.869488	-59.637727	1026.660116	1513.682665	-469.735274	984.283781	1474.668645	-540.635303	917.742432	1433.489707	-550.594612	917.406088	1410.783153	-460.248465	1289.809618	1258.612879	-57.932330	1361.831007	1309.067836	-201.688709	1385.998079	1241.106658	-189.943792	969.099577	1365.797185	-571.895868	1118.389688	1258.334312	-547.249949	1069.646749	1210.836361	-566.740633	1094.668549	1524.648047	-532.117384	1229.145884	1020.428100	-448.015071	
166	  1.660000	1229.465022	990.952135	-206.451738	1061.107290	1076.164254	-370.836171	1062.052145	1071.380362	-277.174664	1131.441834	817.821223	-166.746634	1107.804658	717.371311	-199.295889	979.380302	633.479417	-190.523804	1170.694027	876.354215	-519.915790	1289.383222	799.784459	-493.401057	1280.557155	665.473901	-472.774451	798.485070	427.120021	-261.527477	693.405789	401.640416	-203.601893	633.496310	350.610837	-264.248681	1399.571743	409.294013	-388.723358	1371.687072	339.811121	-423.340460	1406.013959	272.113974	-361.814534	512.738188	408.072571	-227.262262	544.871260	189.656205	-313.329098	520.760700	176.145562	-238.345017	1317.360339	116.331723	-321.422939	1575.796814	117.625066	-321.319356	1522.605281	131.099217	-406.416813	1213.099169	1542.914477	-478.712769	1289.467945	1518.019891	-165.293105	1303.560334	1463.270230	-309.016047	1190.317149	1556.038869	-305.173531	1279.247552	1392.717038	-72.176706	1219.375939	1380.731868	-43.289138	1244.123049	1315.403113	-26.550033	1223.758164	1235.097541	  2.426409	1144.542488	1228.615900	-55.892743	1028.080402	1507.194005	-473.179754	987.052075	1467.495510	-543.914715	921.353799	1425.692681	-553.981928	920.692332	1402.403761	-463.503719	1289.945826	1257.096152	-55.616208	1362.313454	1301.943718	-201.719426	1384.709231	1233.804721	-187.547942	975.012976	1359.357307	-575.182999	1126.473564	1255.819047	-549.495072	1078.948137	1207.350778	-570.012891	1096.682429	1519.106375	-535.716156	1229.657429	1019.581528	-447.243174	
167	  1.670000	1231.088084	990.316374	-205.685362	1061.061498	1073.162911	-369.602419	1061.544671	1068.589045	-275.648078	1135.067196	814.671089	-168.783268	1112.267494	714.455296	-201.514689	985.492398	628.356202	-192.484346	1170.156740	873.828368	-519.909500	1287.076877	791.971896	-492.964300	1273.269469	656.862207	-474.294106	796.689935	429.811169	-261.310571	690.552019	412.616735	-202.518760	626.571339	365.557091	-261.998170	1403.745517	406.654533	-388.660458	1378.281568	336.288510	-423.325533	1420.356866	271.064804	-361.310150	509.654681	430.976039	-221.914427	527.914458	213.426892	-313.870934	501.743847	199.375598	-239.790283	1343.675717	109.977879	-319.236395	1596.435506	122.907734	-319.425170	1543.007005	135.719972	-404.437636	1215.762078	1538.936546	-481.235229	1291.723365	1515.411250	-166.196126	1305.039051	1460.396319	-309.556583	1193.174971	1554.624086	-306.950459	1279.903762	1391.153353	-71.803100	1219.961263	1380.556433	-42.432603	1243.255622	1315.261909	-24.732726	1221.141969	1235.819242	  5.050650	1142.039223	1230.349686	-53.154924	1029.760469	1499.099105	-477.907137	990.546379	1457.972407	-548.156723	926.007844	1415.364068	-558.464133	924.972242	1391.685473	-467.887627	1288.441231	1253.273993	-53.285221	1362.330695	1291.520258	-201.257774	1382.549522	1223.272698	-184.338460	982.107396	1350.479416	-579.242680	1135.789408	1251.450896	-551.720033	1089.705202	1201.870546	-573.228528	1099.285911	1511.879124	-539.681846	1229.980946	1017.553434	-446.562376	
